#!OML:ASF X:\für Bonn\!DataBase\2005_08_12_Daniel\c3d\Daniel.ASF
:FULLY-SPECIFIED
:DEGREES
16
root 1.86061 17.5145 17.6191 -729.285 9.36725 -1.1747
lowerback 8.64465 -2.82837 3.44423
upperback 1.91512 -3.51459 -1.89584
thorax -3.17897 -1.78268 -3.50008
lowerneck 1.08732 0.745277 -0.582043
upperneck 6.82076 1.1747 -3.02662
head 1.95918 0.508657 -0.834326
rclavicle -5.70264e-015 1.23246e-014
rhumerus -44.2183 20.3856 -94.3037
rradius 86.9698
rwrist 15.3672
rhand -30.9588 25.1218
rfingers 7.12502
rthumb -4.24333 -4.81568
lclavicle -5.70264e-015 1.23246e-014
lhumerus -71.6602 57.0743 28.1257
lradius 15.636
lwrist -57.5417
lhand -7.3479 -3.30087
lfingers 7.12502
lthumb 18.5362 25.836
rfemur 2.95235 18.1331 23.4603
rtibia 21.6151
rfoot -19.676 -19.7929
rtoes -13.255
lfemur -3.18253 -9.34265 -16.2588
ltibia 35.1605
lfoot -21.8931 1.00434
ltoes -11.6059
17
root 1.86509 17.5156 17.6556 -729.23 9.47076 -1.20829
lowerback 8.49624 -2.7822 3.4461
upperback 1.90316 -3.4577 -1.89838
thorax -3.10424 -1.75346 -3.51693
lowerneck 1.14881 0.663809 -0.584252
upperneck 6.85904 1.05942 -2.91022
head 1.95791 0.453697 -0.798993
rclavicle -9.93923e-015 1.78906e-014
rhumerus -43.4587 20.7003 -93.5102
rradius 88.9393
rwrist 16.1388
rhand -31.363 25.2653
rfingers 7.12502
rthumb -4.63369 -4.66402
lclavicle -9.93923e-015 1.78906e-014
lhumerus -73.361 57.4062 26.0834
lradius 15.4792
lwrist -58.8832
lhand -7.09317 -3.19483
lfingers 7.12502
lthumb 18.7812 25.9185
rfemur 3.18511 18.5223 23.6545
rtibia 21.4899
rfoot -19.9626 -20.2549
rtoes -13.2173
lfemur -2.961 -9.46872 -16.2788
ltibia 34.9584
lfoot -22.0986 1.14253
ltoes -11.8554
18
root 1.86993 17.517 17.6906 -729.173 9.58142 -1.2438
lowerback 8.36482 -2.73763 3.46114
upperback 1.87777 -3.40174 -1.91392
thorax -3.05448 -1.7255 -3.55332
lowerneck 1.23933 0.580471 -0.553526
upperneck 6.88081 0.941233 -2.80701
head 1.94666 0.398246 -0.773383
rclavicle 1.59028e-015 -2.78299e-015
rhumerus -42.6035 21.0021 -92.6652
rradius 90.8153
rwrist 16.6305
rhand -31.7908 25.4818
rfingers 7.12502
rthumb -5.04673 -4.43806
lclavicle 1.59028e-015 -2.78299e-015
lhumerus -74.8577 57.6329 24.2476
lradius 15.3598
lwrist -60.1273
lhand -6.9014 -3.16978
lfingers 7.12502
lthumb 18.9656 25.9256
rfemur 3.42272 18.8775 23.8451
rtibia 21.3395
rfoot -20.2223 -20.7109
rtoes -13.2998
lfemur -2.78169 -9.59135 -16.2915
ltibia 34.7744
lfoot -22.2374 1.27573
ltoes -12.0965
19
root 1.87455 17.5189 17.7249 -729.12 9.67205 -1.28871
lowerback 8.23926 -2.68568 3.46396
upperback 1.85166 -3.33631 -1.91508
thorax -3.00623 -1.69267 -3.56852
lowerneck 1.33339 0.496429 -0.519604
upperneck 6.89482 0.822688 -2.71723
head 1.93253 0.342497 -0.752464
rclavicle -7.37988e-015 1.94809e-014
rhumerus -41.6406 21.277 -91.7348
rradius 92.6298
rwrist 16.8182
rhand -32.135 25.7129
rfingers 7.12502
rthumb -5.37911 -4.19882
lclavicle -7.37988e-015 1.94809e-014
lhumerus -76.2085 57.8056 22.5932
lradius 15.271
lwrist -61.2569
lhand -6.75881 -3.23015
lfingers 7.12502
lthumb 19.1028 25.8517
rfemur 3.67523 19.2671 24.0555
rtibia 21.1571
rfoot -20.4698 -21.1882
rtoes -13.2708
lfemur -2.6158 -9.68693 -16.291
ltibia 34.6069
lfoot -22.3518 1.40131
ltoes -12.3894
20
root 1.87887 17.521 17.7585 -729.062 9.77981 -1.31106
lowerback 8.10772 -2.64146 3.4309
upperback 1.83229 -3.28448 -1.92033
thorax -2.9471 -1.66602 -3.56639
lowerneck 1.38527 0.410689 -0.493044
upperneck 6.92441 0.702988 -2.62747
head 1.93091 0.285461 -0.730332
rclavicle -7.57867e-015 -1.43125e-014
rhumerus -40.5314 21.5398 -90.7359
rradius 94.3274
rwrist 16.6918
rhand -32.3832 25.8977
rfingers 7.12502
rthumb -5.61875 -4.00784
lclavicle -7.57867e-015 -1.43125e-014
lhumerus -77.3056 57.9166 21.2245
lradius 15.2098
lwrist -62.1611
lhand -6.70253 -3.40131
lfingers 7.12502
lthumb 19.1569 25.6752
rfemur 3.92929 19.654 24.2436
rtibia 20.9724
rfoot -20.7082 -21.6748
rtoes -13.3343
lfemur -2.45701 -9.8011 -16.3139
ltibia 34.4484
lfoot -22.4373 1.51315
ltoes -12.5997
21
root 1.88373 17.5225 17.7912 -729.016 9.87451 -1.35974
lowerback 7.99585 -2.58807 3.42435
upperback 1.80133 -3.21745 -1.92254
thorax -2.91085 -1.63258 -3.5765
lowerneck 1.49106 0.321994 -0.429465
upperneck 6.92828 0.578233 -2.54395
head 1.91175 0.227351 -0.716302
rclavicle 3.94836e-014 2.06736e-014
rhumerus -39.3173 21.733 -89.6609
rradius 95.9299
rwrist 16.4179
rhand -32.5482 25.9023
rfingers 7.12502
rthumb -5.77803 -3.9989
lclavicle 3.94836e-014 2.06736e-014
lhumerus -78.2395 57.9759 20.0267
lradius 15.1711
lwrist -62.9601
lhand -6.69796 -3.54629
lfingers 7.12502
lthumb 19.1613 25.5298
rfemur 4.19113 20.0726 24.4712
rtibia 20.7872
rfoot -20.9534 -22.1839
rtoes -13.3336
lfemur -2.30155 -9.89151 -16.3041
ltibia 34.2962
lfoot -22.4949 1.59475
ltoes -12.8633
22
root 1.88828 17.5235 17.8229 -728.97 9.97005 -1.39332
lowerback 7.8821 -2.53009 3.39707
upperback 1.77894 -3.1462 -1.93072
thorax -2.8635 -1.59654 -3.58169
lowerneck 1.56915 0.22469 -0.343678
upperneck 6.92636 0.443329 -2.47874
head 1.89573 0.164173 -0.711822
rclavicle -1.676e-014 -1.11319e-014
rhumerus -37.9499 21.8299 -88.5246
rradius 97.4268
rwrist 15.9476
rhand -32.562 25.7463
rfingers 7.12502
rthumb -5.79138 -4.15457
lclavicle -1.676e-014 -1.11319e-014
lhumerus -78.8821 58.0047 19.1479
lradius 15.1585
lwrist -63.4879
lhand -6.76294 -3.75298
lfingers 7.12502
lthumb 19.0988 25.3293
rfemur 4.44562 20.4998 24.683
rtibia 20.6186
rfoot -21.2411 -22.6798
rtoes -13.2495
lfemur -2.14887 -9.97691 -16.3093
ltibia 34.145
lfoot -22.5249 1.67459
ltoes -13.022
23
root 1.8927 17.5239 17.8537 -728.916 10.0515 -1.43971
lowerback 7.75479 -2.46623 3.38745
upperback 1.76118 -3.06627 -1.94634
thorax -2.80436 -1.55605 -3.60594
lowerneck 1.59881 0.122924 -0.24168
upperneck 6.96262 0.303645 -2.40757
head 1.90051 0.0984223 -0.708459
rclavicle -9.54166e-015 6.75868e-015
rhumerus -36.4393 21.8492 -87.3494
rradius 98.8093
rwrist 15.3888
rhand -32.5252 25.3847
rfingers 7.12502
rthumb -5.75585 -4.51708
lclavicle -9.54166e-015 6.75868e-015
lhumerus -78.4271 57.8201 19.5516
lradius 15.2171
lwrist -63.2449
lhand -6.83189 -3.87167
lfingers 7.12502
lthumb 19.0325 25.2171
rfemur 4.68867 20.9813 24.9269
rtibia 20.4586
rfoot -21.5277 -23.2288
rtoes -13.2888
lfemur -2.00768 -10.0621 -16.2943
ltibia 33.9978
lfoot -22.5579 1.75122
ltoes -13.194
